<?xml version="1.0" encoding="UTF-8" standalone="no"?>
<svg
   xmlns:dc="http://purl.org/dc/elements/1.1/"
   xmlns:cc="http://creativecommons.org/ns#"
   xmlns:rdf="http://www.w3.org/1999/02/22-rdf-syntax-ns#"
   xmlns:svg="http://www.w3.org/2000/svg"
   xmlns="http://www.w3.org/2000/svg"
   xmlns:sodipodi="http://sodipodi.sourceforge.net/DTD/sodipodi-0.dtd"
   xmlns:inkscape="http://www.inkscape.org/namespaces/inkscape"
   inkscape:version="1.0 (4035a4f, 2020-05-01)"
   sodipodi:docname="App_DARC.svg"
   viewBox="0 0 566.92859 170.77187"
   height="170.77187"
   width="566.92859"
   xml:space="preserve"
   id="svg833"
   version="1.1"><metadata
     id="metadata839"><rdf:RDF><cc:Work
         rdf:about=""><dc:format>image/svg+xml</dc:format><dc:type
           rdf:resource="http://purl.org/dc/dcmitype/StillImage" /><dc:title></dc:title></cc:Work></rdf:RDF></metadata><defs
     id="defs837" /><sodipodi:namedview
     inkscape:current-layer="g841"
     inkscape:window-maximized="0"
     inkscape:window-y="0"
     inkscape:window-x="0"
     inkscape:cy="-90.947346"
     inkscape:cx="273.9898"
     inkscape:zoom="1.0387324"
     fit-margin-bottom="0"
     fit-margin-right="0"
     fit-margin-left="0"
     fit-margin-top="0"
     lock-margins="false"
     showgrid="false"
     id="namedview835"
     inkscape:window-height="900"
     inkscape:window-width="1440"
     inkscape:pageshadow="2"
     inkscape:pageopacity="0"
     guidetolerance="10"
     gridtolerance="10"
     objecttolerance="10"
     borderopacity="1"
     bordercolor="#666666"
     pagecolor="#ffffff" /><g
     transform="matrix(0,1.3333333,1.3333333,0,197.61691,-198.77108)"
     inkscape:label="ink_ext_XXXXXX"
     inkscape:groupmode="layer"
     id="g841"><g
       transform="matrix(0,0.1,-0.1,0,277.50331,-148.73222)"
       id="g843"><path
         id="path845"
         style="fill:#00adef;fill-opacity:1;fill-rule:nonzero;stroke:none"
         d="M 430.688,276.23 H 245.664 v 739.89 h 185.024 v 246.59 H 5.19531 V 29.5977 H 430.688 c 318.05,0 580.192,241.0473 612.882,550.6213 H 794.809 C 763.566,407.352 612.449,276.23 430.688,276.23" /><path
         id="path847"
         style="fill:#b2e6fa;fill-opacity:1;fill-rule:nonzero;stroke:none"
         d="m 997.715,650.531 h 49.345 C 1044.84,966.785 804.668,1226.3 496.781,1259.19 v -49.74 C 776.938,1176.86 995.484,938.922 997.715,650.531" /><path
         id="path849"
         style="fill:#b2e6fa;fill-opacity:1;fill-rule:nonzero;stroke:none"
         d="m 899.055,650.531 h 49.347 C 946.168,911.68 749.637,1127.45 496.781,1159.75 v -49.76 C 722.508,1078.08 896.879,884.586 899.055,650.531" /><path
         id="path851"
         style="fill:#b2e6fa;fill-opacity:1;fill-rule:nonzero;stroke:none"
         d="m 496.781,1060.14 v -50.1 C 668.207,979.25 798.258,830.289 800.371,650.531 h 49.336 C 847.547,857.309 695.375,1028.7 496.781,1060.14" /><path
         id="path853"
         style="fill:#00adef;fill-opacity:1;fill-rule:nonzero;stroke:none"
         d="M 1816.18,511.543 1711.65,791.68 c -11.4,31.441 -23.47,65.629 -35.47,102.754 -12.36,37.136 -23.48,74.285 -34.05,111.406 -10.58,-38.309 -21.47,-75.75 -33.23,-112.293 -11.38,-36.543 -23.2,-71.02 -34.57,-103.59 L 1473.34,511.543 Z m -318.5,751.747 h 285.29 L 2291.07,29.5977 h -297.3 L 1901.24,278.332 H 1389.66 L 1299.27,29.5977 H 1012.19 L 1497.68,1263.29" /><path
         id="path855"
         style="fill:#00adef;fill-opacity:1;fill-rule:nonzero;stroke:none"
         d="m 2730.83,723.922 c 41.64,0 74.83,3.668 99.8,11.285 24.94,7.465 45.77,19.332 61.9,35.664 30.22,30.055 45.18,68.922 45.18,116.547 0,9.395 -1.78,23.434 -5.28,42.672 -3.5,19.09 -13.19,38.629 -29.61,58.312 -23.2,26.698 -50.19,43.138 -81.62,49.598 -31.44,6.28 -63.37,9.5 -95.68,9.5 h -90.6 V 723.922 Z M 2368.6,1263.29 h 381.28 c 74.25,0 142.33,-8.12 204.3,-24.39 62.18,-16.17 114.18,-45.24 155.84,-86.86 35.85,-35.97 61.39,-74.29 76.6,-114.95 14.96,-40.699 22.59,-87.027 22.59,-139.246 0,-45.227 -7.33,-87.469 -21.69,-126.973 -14.67,-39.527 -34.68,-74.308 -60.19,-104.348 -25.54,-30.257 -55.74,-55.195 -91.27,-74.828 -35.5,-19.871 -73.39,-32.644 -113.88,-38.34 L 3277.04,29.5977 H 2960.29 L 2634.92,549.848 V 29.5977 H 2368.6 V 1263.29" /><path
         id="path857"
         style="fill:#00adef;fill-opacity:1;fill-rule:nonzero;stroke:none"
         d="M 4102.22,23.3906 C 4041.98,10.0625 3979.35,3.46094 3914.33,3.46094 c -95.1,0 -181.07,16.93356 -258.3,50.49216 -77.21,33.6016 -142.63,79.0899 -196.66,136.6519 -54,57.372 -95.42,124.27 -124.46,200.879 -29.09,76.633 -43.43,157.727 -43.43,243.637 0,91.746 15.23,176.977 46.07,255.801 30.83,78.953 73.99,147.318 129.79,205.328 55.42,57.97 122.53,103.89 200.73,137.53 78.37,33.56 164.68,50.47 258.62,50.47 127.38,0 237.69,-21.59 330.47,-64.4 V 929.191 c -39.33,32.438 -88.04,59.211 -146.19,80.019 -58.01,21.02 -116.5,31.42 -175.79,31.42 -52.22,0 -100.68,-9.12 -145.31,-27.16 -44.63,-18.091 -83.35,-43.927 -116.51,-77.849 -33.15,-33.711 -58.71,-75.598 -77.48,-125.695 -18.52,-50.16 -27.88,-106.707 -27.88,-169.535 0,-52.5 7.91,-102.317 23.48,-149.477 15.82,-47.172 39.32,-88.926 70.74,-125.059 31.11,-36.093 70.46,-64.82 117.41,-86.492 46.93,-21.543 101.85,-32.285 164.34,-32.285 69.58,0 130.05,9.883 181.07,29.754 50.87,19.746 95.13,44.645 132.12,74.59 V 76.5664 C 4214.29,54.5156 4162.61,36.7422 4102.22,23.3906" /></g></g></svg>
